<mxfile host="65bd71144e">
    <diagram id="OJiwIu-xEUPz4LBK5-yw" name="Page-1">
        <mxGraphModel dx="676" dy="387" grid="0" gridSize="10" guides="1" tooltips="1" connect="1" arrows="1" fold="1" page="0" pageScale="1" pageWidth="827" pageHeight="1169" background="#ffffff" math="0" shadow="1">
            <root>
                <mxCell id="0"/>
                <mxCell id="1" parent="0"/>
            </root>
        </mxGraphModel>
    </diagram>
</mxfile>